<svg xmlns="http://www.w3.org/2000/svg" xmlns:xlink="http://www.w3.org/1999/xlink" viewBox="0 0 111.86 97.6"><defs><linearGradient id="b3aef464-c1be-4abc-aff0-4d1a6213a26d" x1="23.5" y1="83.25" x2="89.61" y2="17.15" gradientTransform="matrix(1, 0, 0, -1, 0, 99.99)" gradientUnits="userSpaceOnUse"><stop offset="0" stop-color="#ffb2c2"></stop><stop offset="1" stop-color="#f85e8a"></stop></linearGradient></defs><title>7609</title><g id="bbd667b4-e6f3-49c9-a637-1ab5740c9f8d"><g id="a2f27fa9-b6c5-4b69-a4b4-30da4d3058fd"><path d="M73.34,13.4c-19.51.93-36.6,9.49-32.48,23.3s6,28.43,7.27,36.09C50.19,85.09,61.5,85.09,63.4,76c4-19.33-3.84-24.64,9.93-26.78,9-1.4,9.14-12.24-1.78-11-5.31.62-10.68,2.09-12.27-3.95C57.09,26,75.84,19.41,89.82,23.61c11.39,3.43,22,19.54,9,45.09C86.22,93.33,61.46,111.12,28.74,84S3.41,27,32,12.15A58.48,58.48,0,0,1,73.05,7.1C81.41,9.21,79.1,13.12,73.34,13.4Z" fill="url(#b3aef464-c1be-4abc-aff0-4d1a6213a26d)"></path><path d="M84.52,13.82C83.93,16.05,97.7,22.16,99,17.2S85.12,11.6,84.52,13.82Z" fill="#f757af"></path><path d="M86.78,8.93c-1.15,2.32,6,1.94,5.88-.74S87.52,7.45,86.78,8.93ZM5.59,57.77c-4.38-.6-3.91,5.36.2,3.74C8.13,60.58,8,58.1,5.59,57.77ZM95,81c1.68,4.32,9.81-1.46,2.09-3.11C94.6,77.34,94.1,78.7,95,81Z" fill="#ab8eeb"></path><g opacity="0.5"><path d="M.87,65.11c-2.87,1.77,1.76,11,8.39,1.53C12.17,62.5,5.6,62.19.87,65.11Z" fill="#ff3e24"></path><path d="M66.1.71C46.66-2.62,11.91,5.93,16.34,24c1,3.93,3.8,8.32,9.06,13.15C40.58,51,46.2,65.05,47.94,71.64c-1.27-7.9-3.16-21.78-7.08-34.94-2.55-8.56,3-15.09,12.29-19.05,7.19-3.6,15-7.67,17.95-11h0C73.43,4,72.68,1.83,66.1.71Zm-12.54,5c1.66-.16,3.33-.25,5-.27C56.89,5.46,55.22,5.55,53.56,5.71Z" fill="#ff3e24"></path></g><path d="M103.76,38.85c1.45,5.24,1.49,11.71-.72,19.28,2.2-7.57,2.17-14,.72-19.28-15.73-8-48.46-2-43.28-9.54a5.57,5.57,0,0,0-1.2,5c1.59,6,7,4.57,12.27,3.95,10.92-1.28,10.81,9.56,1.78,11C59.56,51.33,67.43,56.64,63.4,76c-1.21,5.81-6.24,7.92-10.27,5.5,8.48,6.24,26.78,4,40.73-4.43a.83.83,0,0,1,.08-.12c8.15-4.92,14.81-12,17.13-20.57C113.53,47.28,110,42,103.76,38.85Z" fill="#3c2299" opacity="0.5" style="isolation:isolate"></path><path d="M100.83,35.7A19,19,0,0,0,90.6,23.87l-.78-.26c-14-4.2-32.73,2.36-30.54,10.67,1.59,6,7,4.57,12.27,3.95,10.92-1.28,10.81,9.56,1.78,11-13.77,2.1-5.9,7.41-9.93,26.77-1.9,9.12-13.21,9.12-15.27-3.18C46.85,65.13,45,50.52,40.86,36.7c1,7.46-17.94,18.46-28.13,29.08-4.81,5-7.66,9.93-5.53,14.36,4.32,9,17.2,12.39,32.14,11.29l0,0C70.57,89.12,110.68,67.23,100.83,35.7Z" fill="#ff0098" opacity="0.6"></path></g></g></svg>